<?xml version="1.0" encoding="UTF-8" standalone="no"?>
<svg
   width="16"
   height="16"
   fill="currentColor"
   class="bi bi-stopwatch"
   viewBox="0 0 16 16"
   version="1.1"
   id="svg2"
   sodipodi:docname="stopwatch.svg"
   inkscape:version="1.3.2 (091e20e, 2023-11-25, custom)"
   xmlns:inkscape="http://www.inkscape.org/namespaces/inkscape"
   xmlns:sodipodi="http://sodipodi.sourceforge.net/DTD/sodipodi-0.dtd"
   xmlns="http://www.w3.org/2000/svg"
   xmlns:svg="http://www.w3.org/2000/svg">
  <defs
     id="defs2" />
  <sodipodi:namedview
     id="namedview2"
     pagecolor="#ffffff"
     bordercolor="#000000"
     borderopacity="0.25"
     inkscape:showpageshadow="2"
     inkscape:pageopacity="0.0"
     inkscape:pagecheckerboard="0"
     inkscape:deskcolor="#d1d1d1"
     inkscape:zoom="22.627417"
     inkscape:cx="5.2591067"
     inkscape:cy="14.517786"
     inkscape:window-width="2560"
     inkscape:window-height="1009"
     inkscape:window-x="-8"
     inkscape:window-y="-8"
     inkscape:window-maximized="1"
     inkscape:current-layer="svg2" />
  <path
     d="m 11.434958,9.6270156 a 0.5,0.5 0 1 0 0,-1 H 8.5349579 v -3 a 0.5,0.5 0 0 0 -1,0 v 3.5 a 0.5,0.5 0 0 0 0.5,0.5 z"
     id="path1"
     style="fill:#000000" />
  <path
     d="M6.5 1A.5.5 0 0 1 7 .5h2a.5.5 0 0 1 0 1v.57c1.36.196 2.594.78 3.584 1.64l.012-.013.354-.354-.354-.353a.5.5 0 0 1 .707-.708l1.414 1.415a.5.5 0 1 1-.707.707l-.353-.354-.354.354-.013.012A7 7 0 1 1 7 2.071V1.5a.5.5 0 0 1-.5-.5M8 3a6 6 0 1 0 .001 12A6 6 0 0 0 8 3"
     id="path2"
     style="fill:#808080" />
  <path
     style="fill:#808080;stroke:#ffffff;stroke-width:0.0337656;stroke-opacity:0"
     d="M 7.4705174,14.967874 C 6.2932147,14.858548 5.1958541,14.417332 4.2622752,13.677936 4.0054725,13.474547 3.526636,12.9956 3.3210188,12.736462 2.503688,11.706385 2.0574612,10.489467 2.0184227,9.1841155 1.9959454,8.4325301 2.0855676,7.817424 2.3199963,7.1143201 2.6120615,6.2383517 3.0503278,5.5131672 3.6823648,4.8600552 3.966979,4.5659507 4.1668207,4.3891684 4.4592936,4.1727755 5.6415047,3.2980885 7.1442491,2.8888824 8.6092199,3.0427261 9.5430943,3.1407968 10.438281,3.4522779 11.22503,3.9529 c 0.531048,0.3379148 1.175262,0.9340713 1.546222,1.4308751 0.771492,1.033212 1.173744,2.1776528 1.210559,3.4441431 0.03022,1.0397891 -0.177499,1.9574018 -0.65765,2.9051368 -0.281086,0.554817 -0.628025,1.028556 -1.095889,1.49642 -0.496133,0.496133 -0.956056,0.826179 -1.580859,1.134441 -0.559289,0.275939 -1.0910917,0.448331 -1.6847175,0.546126 -0.4600467,0.07579 -1.0518205,0.09872 -1.4921781,0.05783 z M 11.610815,9.6044823 c 0.05955,-0.020292 0.127567,-0.06546 0.184893,-0.1227853 C 11.996371,9.2810339 11.9956,8.9709029 11.793937,8.7692396 11.634475,8.6097768 11.708101,8.6161252 10.018166,8.6161252 H 8.5391095 L 8.5389214,7.0613718 8.5387333,5.5066185 8.4938376,5.4102088 C 8.4442605,5.303746 8.3381753,5.1999867 8.2324473,5.1545492 8.1291356,5.1101499 7.931422,5.1142723 7.8267148,5.1630088 7.7156935,5.2146842 7.6197056,5.3102523 7.5686192,5.4199759 c -0.040078,0.08608 -0.04034,0.098772 -0.04034,1.954272 v 1.8676294 l 0.053968,0.1098995 c 0.061232,0.124692 0.1671039,0.2189332 0.2886212,0.2569138 0.064348,0.020112 0.4473705,0.025581 1.8633673,0.026604 1.6153943,0.00117 1.7911963,-0.00172 1.8765793,-0.030812 z"
     id="path3" />
</svg>
